<svg id="Layer_1" data-name="Layer 1" xmlns="http://www.w3.org/2000/svg" viewBox="0 0 122.88 121.83"><defs><style>.cls-1,.cls-2{fill-rule:evenodd;}.cls-2{fill:red;}.cls-3{fill:#fff;}</style></defs><title>mp4</title><path class="cls-1" d="M102.42,37H81.92a8.52,8.52,0,0,1-8.85-8.7V7.53H21a.58.58,0,0,0-.41.18.45.45,0,0,0-.18.42V113.71a.7.7,0,0,0,.18.41.51.51,0,0,0,.41.18h80.84c.18,0,.17-.09.26-.18s.34-.28.34-.41V37Zm7.47,79.08a5.77,5.77,0,0,1-5.76,5.76H18.66a5.77,5.77,0,0,1-5.76-5.76V5.76a5.7,5.7,0,0,1,1.69-4.07A5.77,5.77,0,0,1,18.66,0H76.9a4.22,4.22,0,0,1,2.46.82l29.75,30.12a2.57,2.57,0,0,1,.78,2.6v82.53ZM80,27.69,79.57,9.63,100.66,31l-18.14-.81A2.4,2.4,0,0,1,80,27.69Z"/><path class="cls-2" d="M6.71,46.28H116.17A6.73,6.73,0,0,1,122.88,53v45.1a6.73,6.73,0,0,1-6.71,6.71H6.71A6.73,6.73,0,0,1,0,98.09V53a6.73,6.73,0,0,1,6.71-6.71Z"/><path class="cls-3" d="M12.84,60H25.69l4.89,19.18L35.49,60H48.28V91.57h-8v-24l-6.15,24H26.94l-6.13-24v24h-8V60Zm41.6,0h16.2q5.3,0,7.93,2.52t2.64,7.18a9.73,9.73,0,0,1-2.88,7.47C76.42,79,73.49,79.9,69.56,79.9H64.21V91.57H54.44V60Zm9.77,13.47h2.4a6.24,6.24,0,0,0,4-1A3.16,3.16,0,0,0,71.74,70a3.51,3.51,0,0,0-1-2.52c-.67-.69-1.91-1-3.75-1H64.21v7ZM98.46,85.67H82.52v-7.2l15.94-19h7.62V78.89h4v6.78h-4v5.9H98.46v-5.9Zm0-6.78v-10L90,78.89Z"/></svg>